<svg width="1236" height="597" viewBox="0 0 1236 597" fill="none" xmlns="http://www.w3.org/2000/svg">
<circle cx="1131.5" cy="329.5" r="31" stroke="#0f766e" stroke-width="3"/>
<circle cx="32.5" cy="124.5" r="31" stroke="#0f766e" stroke-width="3"/>
<path fill-rule="evenodd" clip-rule="evenodd" d="M129.68 328.988C129.536 328.545 129.464 328.324 129.48 328.125C129.501 327.861 129.626 327.616 129.827 327.444C129.979 327.314 130.2 327.242 130.643 327.098L130.643 327.098C131.086 326.954 131.308 326.882 131.506 326.898C131.771 326.919 132.016 327.044 132.188 327.245C132.317 327.397 132.389 327.618 132.533 328.061L135.778 338.047L132.925 338.974L129.68 328.988ZM130.357 344.015L120.371 347.259L120.371 347.259L120.371 347.259C119.928 347.403 119.706 347.475 119.555 347.604C119.353 347.777 119.228 348.022 119.207 348.286C119.192 348.485 119.264 348.706 119.408 349.149C119.552 349.592 119.624 349.814 119.753 349.965C119.925 350.167 120.17 350.292 120.435 350.313C120.633 350.328 120.855 350.256 121.298 350.112L131.284 346.868L130.357 344.015ZM136.015 348.485L139.26 358.471C139.404 358.914 139.476 359.136 139.605 359.287C139.777 359.489 140.023 359.614 140.287 359.635C140.485 359.65 140.707 359.578 141.15 359.434L141.15 359.434C141.593 359.29 141.815 359.218 141.966 359.089C142.168 358.917 142.293 358.672 142.313 358.407C142.329 358.209 142.257 357.987 142.113 357.544L138.868 347.558L136.015 348.485ZM140.795 343.778L150.781 340.533C151.224 340.389 151.445 340.317 151.597 340.188C151.798 340.016 151.923 339.77 151.944 339.506C151.96 339.308 151.888 339.086 151.744 338.643C151.6 338.2 151.528 337.978 151.399 337.827C151.226 337.625 150.981 337.5 150.717 337.48C150.518 337.464 150.297 337.536 149.854 337.68L139.868 340.924L140.795 343.778Z" fill="#0f766e"/>
<path fill-rule="evenodd" clip-rule="evenodd" d="M1208.68 6.98894C1208.54 6.54581 1208.46 6.32424 1208.48 6.12594C1208.5 5.86154 1208.63 5.61624 1208.83 5.444C1208.98 5.31482 1209.2 5.24283 1209.64 5.09885L1209.64 5.09884C1210.09 4.95486 1210.31 4.88287 1210.51 4.89847C1210.77 4.91928 1211.02 5.04427 1211.19 5.24594C1211.32 5.3972 1211.39 5.61877 1211.53 6.0619L1214.78 16.0476L1211.92 16.9746L1208.68 6.98894ZM1209.36 22.015L1199.37 25.2596L1199.37 25.2596L1199.37 25.2596C1198.93 25.4036 1198.71 25.4756 1198.55 25.6048C1198.35 25.777 1198.23 26.0223 1198.21 26.2867C1198.19 26.485 1198.26 26.7066 1198.41 27.1497C1198.55 27.5929 1198.62 27.8144 1198.75 27.9657C1198.93 28.1674 1199.17 28.2924 1199.43 28.3132C1199.63 28.3288 1199.85 28.2568 1200.3 28.1128L1210.28 24.8682L1209.36 22.015ZM1215.02 26.4852L1218.26 36.4717C1218.4 36.9148 1218.48 37.1364 1218.61 37.2876C1218.78 37.4893 1219.02 37.6143 1219.29 37.6351C1219.49 37.6507 1219.71 37.5787 1220.15 37.4347L1220.15 37.4347C1220.59 37.2907 1220.81 37.2187 1220.97 37.0896C1221.17 36.9173 1221.29 36.672 1221.31 36.4076C1221.33 36.2093 1221.26 35.9878 1221.11 35.5446L1217.87 25.5582L1215.02 26.4852ZM1219.79 21.7781L1229.78 18.5336C1230.22 18.3896 1230.45 18.3176 1230.6 18.1884C1230.8 18.0162 1230.92 17.7709 1230.94 17.5065C1230.96 17.3082 1230.89 17.0866 1230.74 16.6435C1230.6 16.2003 1230.53 15.9788 1230.4 15.8275C1230.23 15.6258 1229.98 15.5008 1229.72 15.48C1229.52 15.4644 1229.3 15.5364 1228.85 15.6804L1218.87 18.9249L1219.79 21.7781Z" fill="#0f766e"/>
<path d="M229.057 575.965C229.057 575.965 204.642 573.254 182.59 558.094C160.538 542.935 149.321 518.484 149.321 518.484" stroke="#0f766e" stroke-width="2" stroke-linecap="square"/>
<path d="M229.196 575.891C229.196 575.891 222.559 577.6 218.433 580.261C214.307 582.922 213.083 585.96 213.083 585.96" stroke="#0f766e" stroke-width="2" stroke-linecap="square"/>
<path d="M229.316 576.625C229.316 576.625 223.701 571.414 221.814 568.395C219.928 565.376 218.311 561.098 218.311 561.098" stroke="#0f766e" stroke-width="2" stroke-linecap="square"/>
<path d="M967.577 77.6333C967.577 77.6333 989.625 66.8012 1016.37 67.7375C1043.11 68.6738 1065.71 83.2678 1065.71 83.2678" stroke="#0f766e" stroke-width="2" stroke-linecap="square"/>
<path d="M967.499 77.771C967.499 77.771 972.178 72.7634 974.228 68.3019C976.278 63.8405 975.678 60.6216 975.678 60.6216" stroke="#0f766e" stroke-width="2" stroke-linecap="square"/>
<path d="M967.004 77.2158C967.004 77.2158 974.539 78.5942 977.752 80.1265C980.965 81.6589 984.628 84.3986 984.628 84.3986" stroke="#0f766e" stroke-width="2" stroke-linecap="square"/>
</svg>
